solid CATIA STL
  facet normal  0.000000e+000  0.000000e+000 -1.000000e+000
    outer loop
      vertex -2.500000e+000 -2.500000e+000 -2.500000e-001
      vertex -1.984250e+000  5.821947e-001 -2.500000e-001
      vertex -2.056005e+000 -2.214620e-001 -2.500000e-001
    endloop
  endfacet
  facet normal  0.000000e+000  -0.000000e+000 -1.000000e+000
    outer loop
      vertex -2.500000e+000 -2.500000e+000 -2.500000e-001
      vertex -2.056005e+000 -2.214620e-001 -2.500000e-001
      vertex -1.814751e+000 -9.914031e-001 -2.500000e-001
    endloop
  endfacet
  facet normal  0.000000e+000  -0.000000e+000 -1.000000e+000
    outer loop
      vertex -2.500000e+000 -2.500000e+000 -2.500000e-001
      vertex -1.814751e+000 -9.914031e-001 -2.500000e-001
      vertex -1.297217e+000 -1.610412e+000 -2.500000e-001
    endloop
  endfacet
  facet normal  0.000000e+000  -0.000000e+000 -1.000000e+000
    outer loop
      vertex -2.500000e+000 -2.500000e+000 -2.500000e-001
      vertex -1.297217e+000 -1.610412e+000 -2.500000e-001
      vertex -5.821945e-001 -1.984250e+000 -2.500000e-001
    endloop
  endfacet
  facet normal  0.000000e+000  -0.000000e+000 -1.000000e+000
    outer loop
      vertex -2.500000e+000 -2.500000e+000 -2.500000e-001
      vertex -5.821945e-001 -1.984250e+000 -2.500000e-001
      vertex  2.214622e-001 -2.056005e+000 -2.500000e-001
    endloop
  endfacet
  facet normal  0.000000e+000  -0.000000e+000 -1.000000e+000
    outer loop
      vertex -2.500000e+000 -2.500000e+000 -2.500000e-001
      vertex  2.214622e-001 -2.056005e+000 -2.500000e-001
      vertex  2.500000e+000 -2.500000e+000 -2.500000e-001
    endloop
  endfacet
  facet normal  -0.000000e+000  0.000000e+000 -1.000000e+000
    outer loop
      vertex -2.500000e+000  2.500000e+000 -2.500000e-001
      vertex  2.500000e+000  2.500000e+000 -2.500000e-001
      vertex  5.821947e-001  1.984250e+000 -2.500000e-001
    endloop
  endfacet
  facet normal  0.000000e+000  0.000000e+000 -9.999999e-001
    outer loop
      vertex -2.500000e+000  2.500000e+000 -2.500000e-001
      vertex  5.821947e-001  1.984250e+000 -2.500000e-001
      vertex -2.214618e-001  2.056005e+000 -2.500000e-001
    endloop
  endfacet
  facet normal  -0.000000e+000  0.000000e+000 -9.999999e-001
    outer loop
      vertex -2.500000e+000  2.500000e+000 -2.500000e-001
      vertex -2.214618e-001  2.056005e+000 -2.500000e-001
      vertex -9.914029e-001  1.814751e+000 -2.500000e-001
    endloop
  endfacet
  facet normal  -0.000000e+000  0.000000e+000 -1.000000e+000
    outer loop
      vertex -2.500000e+000  2.500000e+000 -2.500000e-001
      vertex -9.914029e-001  1.814751e+000 -2.500000e-001
      vertex -1.610412e+000  1.297218e+000 -2.500000e-001
    endloop
  endfacet
  facet normal  -0.000000e+000  0.000000e+000 -1.000000e+000
    outer loop
      vertex -2.500000e+000  2.500000e+000 -2.500000e-001
      vertex -1.610412e+000  1.297218e+000 -2.500000e-001
      vertex -1.984250e+000  5.821947e-001 -2.500000e-001
    endloop
  endfacet
  facet normal  -0.000000e+000  0.000000e+000 -1.000000e+000
    outer loop
      vertex -2.500000e+000  2.500000e+000 -2.500000e-001
      vertex -1.984250e+000  5.821947e-001 -2.500000e-001
      vertex -2.500000e+000 -2.500000e+000 -2.500000e-001
    endloop
  endfacet
  facet normal  0.000000e+000  0.000000e+000 -1.000000e+000
    outer loop
      vertex  2.500000e+000 -2.500000e+000 -2.500000e-001
      vertex  2.214622e-001 -2.056005e+000 -2.500000e-001
      vertex  9.914034e-001 -1.814751e+000 -2.500000e-001
    endloop
  endfacet
  facet normal  0.000000e+000  0.000000e+000 -1.000000e+000
    outer loop
      vertex  2.500000e+000 -2.500000e+000 -2.500000e-001
      vertex  9.914034e-001 -1.814751e+000 -2.500000e-001
      vertex  1.610412e+000 -1.297217e+000 -2.500000e-001
    endloop
  endfacet
  facet normal  0.000000e+000  0.000000e+000 -1.000000e+000
    outer loop
      vertex  2.500000e+000 -2.500000e+000 -2.500000e-001
      vertex  1.610412e+000 -1.297217e+000 -2.500000e-001
      vertex  1.984250e+000 -5.821945e-001 -2.500000e-001
    endloop
  endfacet
  facet normal  0.000000e+000  0.000000e+000 -1.000000e+000
    outer loop
      vertex  2.500000e+000 -2.500000e+000 -2.500000e-001
      vertex  1.984250e+000 -5.821945e-001 -2.500000e-001
      vertex  2.056005e+000  2.214621e-001 -2.500000e-001
    endloop
  endfacet
  facet normal  0.000000e+000  0.000000e+000 -1.000000e+000
    outer loop
      vertex  2.500000e+000  2.500000e+000 -2.500000e-001
      vertex  2.500000e+000 -2.500000e+000 -2.500000e-001
      vertex  2.056005e+000  2.214621e-001 -2.500000e-001
    endloop
  endfacet
  facet normal  0.000000e+000  0.000000e+000 -9.999999e-001
    outer loop
      vertex  2.500000e+000  2.500000e+000 -2.500000e-001
      vertex  2.056005e+000  2.214621e-001 -2.500000e-001
      vertex  1.814751e+000  9.914031e-001 -2.500000e-001
    endloop
  endfacet
  facet normal  0.000000e+000  0.000000e+000 -1.000000e+000
    outer loop
      vertex  2.500000e+000  2.500000e+000 -2.500000e-001
      vertex  1.814751e+000  9.914031e-001 -2.500000e-001
      vertex  1.297217e+000  1.610412e+000 -2.500000e-001
    endloop
  endfacet
  facet normal  0.000000e+000  0.000000e+000 -1.000000e+000
    outer loop
      vertex  2.500000e+000  2.500000e+000 -2.500000e-001
      vertex  1.297217e+000  1.610412e+000 -2.500000e-001
      vertex  5.821947e-001  1.984250e+000 -2.500000e-001
    endloop
  endfacet
  facet normal  4.616987e-002 -1.632615e-001 -9.855019e-001
    outer loop
      vertex  0.000000e+000  0.000000e+000 -1.684194e+000
      vertex  3.197603e-001 -5.853173e-001 -1.572248e+000
      vertex  3.413441e-002 -6.660914e-001 -1.572248e+000
    endloop
  endfacet
  facet normal -2.923891e-002 -1.671260e-001 -9.855019e-001
    outer loop
      vertex  0.000000e+000  0.000000e+000 -1.684194e+000
      vertex  3.413441e-002 -6.660914e-001 -1.572248e+000
      vertex -2.582522e-001 -6.149380e-001 -1.572248e+000
    endloop
  endfacet
  facet normal -9.885655e-002 -1.378890e-001 -9.855019e-001
    outer loop
      vertex  0.000000e+000  0.000000e+000 -1.684194e+000
      vertex -2.582522e-001 -6.149380e-001 -1.572248e+000
      vertex -4.994888e-001 -4.419886e-001 -1.572248e+000
    endloop
  endfacet
  facet normal -1.488945e-001 -8.134142e-002 -9.855019e-001
    outer loop
      vertex  0.000000e+000  0.000000e+000 -1.684194e+000
      vertex -4.994888e-001 -4.419886e-001 -1.572248e+000
      vertex -6.417955e-001 -1.814979e-001 -1.572248e+000
    endloop
  endfacet
  facet normal -1.694420e-001 -8.683207e-003 -9.855019e-001
    outer loop
      vertex  0.000000e+000  0.000000e+000 -1.684194e+000
      vertex -6.417955e-001 -1.814979e-001 -1.572248e+000
      vertex -6.569867e-001  1.149407e-001 -1.572248e+000
    endloop
  endfacet
  facet normal -1.564295e-001  6.569483e-002 -9.855019e-001
    outer loop
      vertex  0.000000e+000  0.000000e+000 -1.684194e+000
      vertex -6.569867e-001  1.149407e-001 -1.572248e+000
      vertex -5.420537e-001  3.886138e-001 -1.572248e+000
    endloop
  endfacet
  facet normal -1.124342e-001  1.270612e-001 -9.855019e-001
    outer loop
      vertex  0.000000e+000  0.000000e+000 -1.684194e+000
      vertex -5.420537e-001  3.886138e-001 -1.572248e+000
      vertex -3.197603e-001  5.853173e-001 -1.572248e+000
    endloop
  endfacet
  facet normal  1.357470e-001 -4.800158e-001 -8.666935e-001
    outer loop
      vertex  3.413441e-002 -6.660914e-001 -1.572248e+000
      vertex  3.197603e-001 -5.853173e-001 -1.572248e+000
      vertex  6.295197e-002 -1.228431e+000 -1.256284e+000
    endloop
  endfacet
  facet normal  1.357471e-001 -4.800158e-001 -8.666934e-001
    outer loop
      vertex  6.295197e-002 -1.228431e+000 -1.256284e+000
      vertex  3.197603e-001 -5.853173e-001 -1.572248e+000
      vertex  5.897140e-001 -1.079464e+000 -1.256284e+000
    endloop
  endfacet
  facet normal  1.960550e-001 -6.932709e-001 -6.934968e-001
    outer loop
      vertex  6.295197e-002 -1.228431e+000 -1.256284e+000
      vertex  5.897140e-001 -1.079464e+000 -1.256284e+000
      vertex  7.990310e-002 -1.559211e+000 -9.208193e-001
    endloop
  endfacet
  facet normal  1.960550e-001 -6.932709e-001 -6.934969e-001
    outer loop
      vertex  7.990310e-002 -1.559211e+000 -9.208193e-001
      vertex  5.897140e-001 -1.079464e+000 -1.256284e+000
      vertex  7.485067e-001 -1.370132e+000 -9.208193e-001
    endloop
  endfacet
  facet normal  2.360712e-001 -8.347723e-001 -4.974189e-001
    outer loop
      vertex  7.990310e-002 -1.559211e+000 -9.208193e-001
      vertex  7.485067e-001 -1.370132e+000 -9.208193e-001
      vertex  9.636921e-002 -1.880527e+000 -3.737693e-001
    endloop
  endfacet
  facet normal  2.360711e-001 -8.347723e-001 -4.974189e-001
    outer loop
      vertex  9.636921e-002 -1.880527e+000 -3.737693e-001
      vertex  7.485067e-001 -1.370132e+000 -9.208193e-001
      vertex  9.027560e-001 -1.652484e+000 -3.737693e-001
    endloop
  endfacet
  facet normal -3.305749e-001  3.735809e-001 -8.666935e-001
    outer loop
      vertex -3.197603e-001  5.853173e-001 -1.572248e+000
      vertex -5.420537e-001  3.886138e-001 -1.572248e+000
      vertex -5.897140e-001  1.079464e+000 -1.256284e+000
    endloop
  endfacet
  facet normal -3.305750e-001  3.735809e-001 -8.666934e-001
    outer loop
      vertex -5.897140e-001  1.079464e+000 -1.256284e+000
      vertex -5.420537e-001  3.886138e-001 -1.572248e+000
      vertex -9.996759e-001  7.166963e-001 -1.256284e+000
    endloop
  endfacet
  facet normal -4.774384e-001  5.395504e-001 -6.934969e-001
    outer loop
      vertex -5.897140e-001  1.079464e+000 -1.256284e+000
      vertex -9.996759e-001  7.166963e-001 -1.256284e+000
      vertex -7.485067e-001  1.370132e+000 -9.208193e-001
    endloop
  endfacet
  facet normal -4.774384e-001  5.395504e-001 -6.934968e-001
    outer loop
      vertex -7.485067e-001  1.370132e+000 -9.208193e-001
      vertex -9.996759e-001  7.166963e-001 -1.256284e+000
      vertex -1.268859e+000  9.096816e-001 -9.208193e-001
    endloop
  endfacet
  facet normal -5.748869e-001  6.496764e-001 -4.974189e-001
    outer loop
      vertex -7.485067e-001  1.370132e+000 -9.208193e-001
      vertex -1.268859e+000  9.096816e-001 -9.208193e-001
      vertex -9.027560e-001  1.652484e+000 -3.737693e-001
    endloop
  endfacet
  facet normal -5.748870e-001  6.496764e-001 -4.974189e-001
    outer loop
      vertex -9.027560e-001  1.652484e+000 -3.737693e-001
      vertex -1.268859e+000  9.096816e-001 -9.208193e-001
      vertex -1.530341e+000  1.097145e+000 -3.737693e-001
    endloop
  endfacet
  facet normal -4.599285e-001  1.931536e-001 -8.666934e-001
    outer loop
      vertex -5.420537e-001  3.886138e-001 -1.572248e+000
      vertex -6.569867e-001  1.149407e-001 -1.572248e+000
      vertex -9.996759e-001  7.166963e-001 -1.256284e+000
    endloop
  endfacet
  facet normal -4.599284e-001  1.931536e-001 -8.666934e-001
    outer loop
      vertex -9.996759e-001  7.166963e-001 -1.256284e+000
      vertex -6.569867e-001  1.149407e-001 -1.572248e+000
      vertex -1.211640e+000  2.119780e-001 -1.256284e+000
    endloop
  endfacet
  facet normal -6.642593e-001  2.789654e-001 -6.934968e-001
    outer loop
      vertex -9.996759e-001  7.166963e-001 -1.256284e+000
      vertex -1.211640e+000  2.119780e-001 -1.256284e+000
      vertex -1.268859e+000  9.096816e-001 -9.208193e-001
    endloop
  endfacet
  facet normal -6.642593e-001  2.789654e-001 -6.934969e-001
    outer loop
      vertex -1.268859e+000  9.096816e-001 -9.208193e-001
      vertex -1.211640e+000  2.119780e-001 -1.256284e+000
      vertex -1.537899e+000  2.690574e-001 -9.208193e-001
    endloop
  endfacet
  facet normal -7.998392e-001  3.359042e-001 -4.974189e-001
    outer loop
      vertex -1.268859e+000  9.096816e-001 -9.208193e-001
      vertex -1.537899e+000  2.690574e-001 -9.208193e-001
      vertex -1.530341e+000  1.097145e+000 -3.737693e-001
    endloop
  endfacet
  facet normal -7.998393e-001  3.359042e-001 -4.974188e-001
    outer loop
      vertex -1.530341e+000  1.097145e+000 -3.737693e-001
      vertex -1.537899e+000  2.690574e-001 -9.208193e-001
      vertex -1.854823e+000  3.245037e-001 -3.737693e-001
    endloop
  endfacet
  facet normal -4.981874e-001 -2.553006e-002 -8.666935e-001
    outer loop
      vertex -6.569867e-001  1.149407e-001 -1.572248e+000
      vertex -6.417955e-001 -1.814979e-001 -1.572248e+000
      vertex -1.211640e+000  2.119780e-001 -1.256284e+000
    endloop
  endfacet
  facet normal -4.981875e-001 -2.553009e-002 -8.666934e-001
    outer loop
      vertex -1.211640e+000  2.119780e-001 -1.256284e+000
      vertex -6.417955e-001 -1.814979e-001 -1.572248e+000
      vertex -1.183623e+000 -3.347252e-001 -1.256284e+000
    endloop
  endfacet
  facet normal -7.195155e-001 -3.687226e-002 -6.934968e-001
    outer loop
      vertex -1.211640e+000  2.119780e-001 -1.256284e+000
      vertex -1.183623e+000 -3.347252e-001 -1.256284e+000
      vertex -1.537899e+000  2.690574e-001 -9.208193e-001
    endloop
  endfacet
  facet normal -7.195154e-001 -3.687220e-002 -6.934969e-001
    outer loop
      vertex -1.537899e+000  2.690574e-001 -9.208193e-001
      vertex -1.183623e+000 -3.347252e-001 -1.256284e+000
      vertex -1.502339e+000 -4.248569e-001 -9.208193e-001
    endloop
  endfacet
  facet normal -8.663737e-001 -4.439808e-002 -4.974189e-001
    outer loop
      vertex -1.537899e+000  2.690574e-001 -9.208193e-001
      vertex -1.502339e+000 -4.248569e-001 -9.208193e-001
      vertex -1.854823e+000  3.245037e-001 -3.737693e-001
    endloop
  endfacet
  facet normal -8.663736e-001 -4.439799e-002 -4.974190e-001
    outer loop
      vertex -1.854823e+000  3.245037e-001 -3.737693e-001
      vertex -1.502339e+000 -4.248569e-001 -9.208193e-001
      vertex -1.811935e+000 -5.124097e-001 -3.737693e-001
    endloop
  endfacet
  facet normal -4.377743e-001 -2.391572e-001 -8.666934e-001
    outer loop
      vertex -6.417955e-001 -1.814979e-001 -1.572248e+000
      vertex -4.994888e-001 -4.419886e-001 -1.572248e+000
      vertex -1.183623e+000 -3.347252e-001 -1.256284e+000
    endloop
  endfacet
  facet normal -4.377743e-001 -2.391571e-001 -8.666934e-001
    outer loop
      vertex -1.183623e+000 -3.347252e-001 -1.256284e+000
      vertex -4.994888e-001 -4.419886e-001 -1.572248e+000
      vertex -9.211761e-001 -8.151320e-001 -1.256284e+000
    endloop
  endfacet
  facet normal -6.322628e-001 -3.454067e-001 -6.934969e-001
    outer loop
      vertex -1.183623e+000 -3.347252e-001 -1.256284e+000
      vertex -9.211761e-001 -8.151320e-001 -1.256284e+000
      vertex -1.502339e+000 -4.248569e-001 -9.208193e-001
    endloop
  endfacet
  facet normal -6.322628e-001 -3.454067e-001 -6.934969e-001
    outer loop
      vertex -1.502339e+000 -4.248569e-001 -9.208193e-001
      vertex -9.211761e-001 -8.151320e-001 -1.256284e+000
      vertex -1.169222e+000 -1.034623e+000 -9.208193e-001
    endloop
  endfacet
  facet normal -7.613121e-001 -4.159066e-001 -4.974189e-001
    outer loop
      vertex -1.502339e+000 -4.248569e-001 -9.208193e-001
      vertex -1.169222e+000 -1.034623e+000 -9.208193e-001
      vertex -1.811935e+000 -5.124097e-001 -3.737693e-001
    endloop
  endfacet
  facet normal -7.613120e-001 -4.159066e-001 -4.974189e-001
    outer loop
      vertex -1.811935e+000 -5.124097e-001 -3.737693e-001
      vertex -1.169222e+000 -1.034623e+000 -9.208193e-001
      vertex -1.410170e+000 -1.247834e+000 -3.737693e-001
    endloop
  endfacet
  facet normal -2.906546e-001 -4.054164e-001 -8.666935e-001
    outer loop
      vertex -4.994888e-001 -4.419886e-001 -1.572248e+000
      vertex -2.582522e-001 -6.149380e-001 -1.572248e+000
      vertex -9.211761e-001 -8.151320e-001 -1.256284e+000
    endloop
  endfacet
  facet normal -2.906546e-001 -4.054163e-001 -8.666935e-001
    outer loop
      vertex -9.211761e-001 -8.151320e-001 -1.256284e+000
      vertex -2.582522e-001 -6.149380e-001 -1.572248e+000
      vertex -4.762785e-001 -1.134092e+000 -1.256284e+000
    endloop
  endfacet
  facet normal -4.197827e-001 -5.855293e-001 -6.934969e-001
    outer loop
      vertex -9.211761e-001 -8.151320e-001 -1.256284e+000
      vertex -4.762785e-001 -1.134092e+000 -1.256284e+000
      vertex -1.169222e+000 -1.034623e+000 -9.208193e-001
    endloop
  endfacet
  facet normal -4.197827e-001 -5.855292e-001 -6.934969e-001
    outer loop
      vertex -1.169222e+000 -1.034623e+000 -9.208193e-001
      vertex -4.762785e-001 -1.134092e+000 -1.256284e+000
      vertex -6.045263e-001 -1.439470e+000 -9.208193e-001
    endloop
  endfacet
  facet normal -5.054634e-001 -7.050399e-001 -4.974189e-001
    outer loop
      vertex -1.169222e+000 -1.034623e+000 -9.208193e-001
      vertex -6.045263e-001 -1.439470e+000 -9.208193e-001
      vertex -1.410170e+000 -1.247834e+000 -3.737693e-001
    endloop
  endfacet
  facet normal -5.054633e-001 -7.050400e-001 -4.974188e-001
    outer loop
      vertex -1.410170e+000 -1.247834e+000 -3.737693e-001
      vertex -6.045263e-001 -1.439470e+000 -9.208193e-001
      vertex -7.291046e-001 -1.736110e+000 -3.737693e-001
    endloop
  endfacet
  facet normal -8.596719e-002 -4.913778e-001 -8.666935e-001
    outer loop
      vertex -2.582522e-001 -6.149380e-001 -1.572248e+000
      vertex  3.413441e-002 -6.660914e-001 -1.572248e+000
      vertex -4.762785e-001 -1.134092e+000 -1.256284e+000
    endloop
  endfacet
  facet normal -8.596724e-002 -4.913778e-001 -8.666934e-001
    outer loop
      vertex -4.762785e-001 -1.134092e+000 -1.256284e+000
      vertex  3.413441e-002 -6.660914e-001 -1.572248e+000
      vertex  6.295197e-002 -1.228431e+000 -1.256284e+000
    endloop
  endfacet
  facet normal -1.241596e-001 -7.096804e-001 -6.934969e-001
    outer loop
      vertex -4.762785e-001 -1.134092e+000 -1.256284e+000
      vertex  6.295197e-002 -1.228431e+000 -1.256284e+000
      vertex -6.045263e-001 -1.439470e+000 -9.208193e-001
    endloop
  endfacet
  facet normal -1.241595e-001 -7.096806e-001 -6.934969e-001
    outer loop
      vertex -6.045263e-001 -1.439470e+000 -9.208193e-001
      vertex  6.295197e-002 -1.228431e+000 -1.256284e+000
      vertex  7.990310e-002 -1.559211e+000 -9.208193e-001
    endloop
  endfacet
  facet normal -1.495014e-001 -8.545314e-001 -4.974189e-001
    outer loop
      vertex -6.045263e-001 -1.439470e+000 -9.208193e-001
      vertex  7.990310e-002 -1.559211e+000 -9.208193e-001
      vertex -7.291046e-001 -1.736110e+000 -3.737693e-001
    endloop
  endfacet
  facet normal -1.495014e-001 -8.545313e-001 -4.974189e-001
    outer loop
      vertex -7.291046e-001 -1.736110e+000 -3.737693e-001
      vertex  7.990310e-002 -1.559211e+000 -9.208193e-001
      vertex  9.636921e-002 -1.880527e+000 -3.737693e-001
    endloop
  endfacet
  facet normal -4.616987e-002  1.632615e-001 -9.855019e-001
    outer loop
      vertex  0.000000e+000  0.000000e+000 -1.684194e+000
      vertex -3.197603e-001  5.853173e-001 -1.572248e+000
      vertex -3.413441e-002  6.660914e-001 -1.572248e+000
    endloop
  endfacet
  facet normal  2.923891e-002  1.671260e-001 -9.855019e-001
    outer loop
      vertex  0.000000e+000  0.000000e+000 -1.684194e+000
      vertex -3.413441e-002  6.660914e-001 -1.572248e+000
      vertex  2.582522e-001  6.149380e-001 -1.572248e+000
    endloop
  endfacet
  facet normal  9.885655e-002  1.378890e-001 -9.855019e-001
    outer loop
      vertex  0.000000e+000  0.000000e+000 -1.684194e+000
      vertex  2.582522e-001  6.149380e-001 -1.572248e+000
      vertex  4.994888e-001  4.419886e-001 -1.572248e+000
    endloop
  endfacet
  facet normal  1.488945e-001  8.134142e-002 -9.855019e-001
    outer loop
      vertex  0.000000e+000  0.000000e+000 -1.684194e+000
      vertex  4.994888e-001  4.419886e-001 -1.572248e+000
      vertex  6.417955e-001  1.814979e-001 -1.572248e+000
    endloop
  endfacet
  facet normal  1.694420e-001  8.683207e-003 -9.855019e-001
    outer loop
      vertex  0.000000e+000  0.000000e+000 -1.684194e+000
      vertex  6.417955e-001  1.814979e-001 -1.572248e+000
      vertex  6.569867e-001 -1.149407e-001 -1.572248e+000
    endloop
  endfacet
  facet normal  1.564295e-001 -6.569483e-002 -9.855019e-001
    outer loop
      vertex  0.000000e+000  0.000000e+000 -1.684194e+000
      vertex  6.569867e-001 -1.149407e-001 -1.572248e+000
      vertex  5.420537e-001 -3.886138e-001 -1.572248e+000
    endloop
  endfacet
  facet normal  1.124342e-001 -1.270612e-001 -9.855019e-001
    outer loop
      vertex  0.000000e+000  0.000000e+000 -1.684194e+000
      vertex  5.420537e-001 -3.886138e-001 -1.572248e+000
      vertex  3.197603e-001 -5.853173e-001 -1.572248e+000
    endloop
  endfacet
  facet normal -1.357470e-001  4.800158e-001 -8.666935e-001
    outer loop
      vertex -3.413441e-002  6.660914e-001 -1.572248e+000
      vertex -3.197603e-001  5.853173e-001 -1.572248e+000
      vertex -6.295197e-002  1.228431e+000 -1.256284e+000
    endloop
  endfacet
  facet normal -1.357471e-001  4.800158e-001 -8.666934e-001
    outer loop
      vertex -6.295197e-002  1.228431e+000 -1.256284e+000
      vertex -3.197603e-001  5.853173e-001 -1.572248e+000
      vertex -5.897140e-001  1.079464e+000 -1.256284e+000
    endloop
  endfacet
  facet normal -1.960550e-001  6.932709e-001 -6.934968e-001
    outer loop
      vertex -6.295197e-002  1.228431e+000 -1.256284e+000
      vertex -5.897140e-001  1.079464e+000 -1.256284e+000
      vertex -7.990310e-002  1.559211e+000 -9.208193e-001
    endloop
  endfacet
  facet normal -1.960550e-001  6.932709e-001 -6.934969e-001
    outer loop
      vertex -7.990310e-002  1.559211e+000 -9.208193e-001
      vertex -5.897140e-001  1.079464e+000 -1.256284e+000
      vertex -7.485067e-001  1.370132e+000 -9.208193e-001
    endloop
  endfacet
  facet normal -2.360712e-001  8.347723e-001 -4.974189e-001
    outer loop
      vertex -7.990310e-002  1.559211e+000 -9.208193e-001
      vertex -7.485067e-001  1.370132e+000 -9.208193e-001
      vertex -9.636921e-002  1.880527e+000 -3.737693e-001
    endloop
  endfacet
  facet normal -2.360711e-001  8.347723e-001 -4.974189e-001
    outer loop
      vertex -9.636921e-002  1.880527e+000 -3.737693e-001
      vertex -7.485067e-001  1.370132e+000 -9.208193e-001
      vertex -9.027560e-001  1.652484e+000 -3.737693e-001
    endloop
  endfacet
  facet normal  3.305749e-001 -3.735809e-001 -8.666935e-001
    outer loop
      vertex  3.197603e-001 -5.853173e-001 -1.572248e+000
      vertex  5.420537e-001 -3.886138e-001 -1.572248e+000
      vertex  5.897140e-001 -1.079464e+000 -1.256284e+000
    endloop
  endfacet
  facet normal  3.305750e-001 -3.735809e-001 -8.666934e-001
    outer loop
      vertex  5.897140e-001 -1.079464e+000 -1.256284e+000
      vertex  5.420537e-001 -3.886138e-001 -1.572248e+000
      vertex  9.996759e-001 -7.166963e-001 -1.256284e+000
    endloop
  endfacet
  facet normal  4.774384e-001 -5.395504e-001 -6.934969e-001
    outer loop
      vertex  5.897140e-001 -1.079464e+000 -1.256284e+000
      vertex  9.996759e-001 -7.166963e-001 -1.256284e+000
      vertex  7.485067e-001 -1.370132e+000 -9.208193e-001
    endloop
  endfacet
  facet normal  4.774384e-001 -5.395504e-001 -6.934968e-001
    outer loop
      vertex  7.485067e-001 -1.370132e+000 -9.208193e-001
      vertex  9.996759e-001 -7.166963e-001 -1.256284e+000
      vertex  1.268859e+000 -9.096816e-001 -9.208193e-001
    endloop
  endfacet
  facet normal  5.748869e-001 -6.496764e-001 -4.974189e-001
    outer loop
      vertex  7.485067e-001 -1.370132e+000 -9.208193e-001
      vertex  1.268859e+000 -9.096816e-001 -9.208193e-001
      vertex  9.027560e-001 -1.652484e+000 -3.737693e-001
    endloop
  endfacet
  facet normal  5.748870e-001 -6.496764e-001 -4.974189e-001
    outer loop
      vertex  9.027560e-001 -1.652484e+000 -3.737693e-001
      vertex  1.268859e+000 -9.096816e-001 -9.208193e-001
      vertex  1.530341e+000 -1.097145e+000 -3.737693e-001
    endloop
  endfacet
  facet normal  4.599285e-001 -1.931536e-001 -8.666934e-001
    outer loop
      vertex  5.420537e-001 -3.886138e-001 -1.572248e+000
      vertex  6.569867e-001 -1.149407e-001 -1.572248e+000
      vertex  9.996759e-001 -7.166963e-001 -1.256284e+000
    endloop
  endfacet
  facet normal  4.599284e-001 -1.931536e-001 -8.666934e-001
    outer loop
      vertex  9.996759e-001 -7.166963e-001 -1.256284e+000
      vertex  6.569867e-001 -1.149407e-001 -1.572248e+000
      vertex  1.211640e+000 -2.119780e-001 -1.256284e+000
    endloop
  endfacet
  facet normal  6.642593e-001 -2.789654e-001 -6.934968e-001
    outer loop
      vertex  9.996759e-001 -7.166963e-001 -1.256284e+000
      vertex  1.211640e+000 -2.119780e-001 -1.256284e+000
      vertex  1.268859e+000 -9.096816e-001 -9.208193e-001
    endloop
  endfacet
  facet normal  6.642593e-001 -2.789654e-001 -6.934969e-001
    outer loop
      vertex  1.268859e+000 -9.096816e-001 -9.208193e-001
      vertex  1.211640e+000 -2.119780e-001 -1.256284e+000
      vertex  1.537899e+000 -2.690574e-001 -9.208193e-001
    endloop
  endfacet
  facet normal  7.998392e-001 -3.359042e-001 -4.974189e-001
    outer loop
      vertex  1.268859e+000 -9.096816e-001 -9.208193e-001
      vertex  1.537899e+000 -2.690574e-001 -9.208193e-001
      vertex  1.530341e+000 -1.097145e+000 -3.737693e-001
    endloop
  endfacet
  facet normal  7.998393e-001 -3.359042e-001 -4.974188e-001
    outer loop
      vertex  1.530341e+000 -1.097145e+000 -3.737693e-001
      vertex  1.537899e+000 -2.690574e-001 -9.208193e-001
      vertex  1.854823e+000 -3.245037e-001 -3.737693e-001
    endloop
  endfacet
  facet normal  4.981874e-001  2.553006e-002 -8.666935e-001
    outer loop
      vertex  6.569867e-001 -1.149407e-001 -1.572248e+000
      vertex  6.417955e-001  1.814979e-001 -1.572248e+000
      vertex  1.211640e+000 -2.119780e-001 -1.256284e+000
    endloop
  endfacet
  facet normal  4.981875e-001  2.553009e-002 -8.666934e-001
    outer loop
      vertex  1.211640e+000 -2.119780e-001 -1.256284e+000
      vertex  6.417955e-001  1.814979e-001 -1.572248e+000
      vertex  1.183623e+000  3.347252e-001 -1.256284e+000
    endloop
  endfacet
  facet normal  7.195155e-001  3.687226e-002 -6.934968e-001
    outer loop
      vertex  1.211640e+000 -2.119780e-001 -1.256284e+000
      vertex  1.183623e+000  3.347252e-001 -1.256284e+000
      vertex  1.537899e+000 -2.690574e-001 -9.208193e-001
    endloop
  endfacet
  facet normal  7.195154e-001  3.687220e-002 -6.934969e-001
    outer loop
      vertex  1.537899e+000 -2.690574e-001 -9.208193e-001
      vertex  1.183623e+000  3.347252e-001 -1.256284e+000
      vertex  1.502339e+000  4.248569e-001 -9.208193e-001
    endloop
  endfacet
  facet normal  8.663737e-001  4.439808e-002 -4.974189e-001
    outer loop
      vertex  1.537899e+000 -2.690574e-001 -9.208193e-001
      vertex  1.502339e+000  4.248569e-001 -9.208193e-001
      vertex  1.854823e+000 -3.245037e-001 -3.737693e-001
    endloop
  endfacet
  facet normal  8.663736e-001  4.439799e-002 -4.974190e-001
    outer loop
      vertex  1.854823e+000 -3.245037e-001 -3.737693e-001
      vertex  1.502339e+000  4.248569e-001 -9.208193e-001
      vertex  1.811935e+000  5.124097e-001 -3.737693e-001
    endloop
  endfacet
  facet normal  4.377743e-001  2.391572e-001 -8.666934e-001
    outer loop
      vertex  6.417955e-001  1.814979e-001 -1.572248e+000
      vertex  4.994888e-001  4.419886e-001 -1.572248e+000
      vertex  1.183623e+000  3.347252e-001 -1.256284e+000
    endloop
  endfacet
  facet normal  4.377743e-001  2.391571e-001 -8.666934e-001
    outer loop
      vertex  1.183623e+000  3.347252e-001 -1.256284e+000
      vertex  4.994888e-001  4.419886e-001 -1.572248e+000
      vertex  9.211761e-001  8.151320e-001 -1.256284e+000
    endloop
  endfacet
  facet normal  6.322628e-001  3.454067e-001 -6.934969e-001
    outer loop
      vertex  1.183623e+000  3.347252e-001 -1.256284e+000
      vertex  9.211761e-001  8.151320e-001 -1.256284e+000
      vertex  1.502339e+000  4.248569e-001 -9.208193e-001
    endloop
  endfacet
  facet normal  6.322628e-001  3.454067e-001 -6.934969e-001
    outer loop
      vertex  1.502339e+000  4.248569e-001 -9.208193e-001
      vertex  9.211761e-001  8.151320e-001 -1.256284e+000
      vertex  1.169222e+000  1.034623e+000 -9.208193e-001
    endloop
  endfacet
  facet normal  7.613121e-001  4.159066e-001 -4.974189e-001
    outer loop
      vertex  1.502339e+000  4.248569e-001 -9.208193e-001
      vertex  1.169222e+000  1.034623e+000 -9.208193e-001
      vertex  1.811935e+000  5.124097e-001 -3.737693e-001
    endloop
  endfacet
  facet normal  7.613120e-001  4.159066e-001 -4.974189e-001
    outer loop
      vertex  1.811935e+000  5.124097e-001 -3.737693e-001
      vertex  1.169222e+000  1.034623e+000 -9.208193e-001
      vertex  1.410170e+000  1.247834e+000 -3.737693e-001
    endloop
  endfacet
  facet normal  2.906546e-001  4.054164e-001 -8.666935e-001
    outer loop
      vertex  4.994888e-001  4.419886e-001 -1.572248e+000
      vertex  2.582522e-001  6.149380e-001 -1.572248e+000
      vertex  9.211761e-001  8.151320e-001 -1.256284e+000
    endloop
  endfacet
  facet normal  2.906546e-001  4.054163e-001 -8.666935e-001
    outer loop
      vertex  9.211761e-001  8.151320e-001 -1.256284e+000
      vertex  2.582522e-001  6.149380e-001 -1.572248e+000
      vertex  4.762785e-001  1.134092e+000 -1.256284e+000
    endloop
  endfacet
  facet normal  4.197827e-001  5.855293e-001 -6.934969e-001
    outer loop
      vertex  9.211761e-001  8.151320e-001 -1.256284e+000
      vertex  4.762785e-001  1.134092e+000 -1.256284e+000
      vertex  1.169222e+000  1.034623e+000 -9.208193e-001
    endloop
  endfacet
  facet normal  4.197827e-001  5.855292e-001 -6.934969e-001
    outer loop
      vertex  1.169222e+000  1.034623e+000 -9.208193e-001
      vertex  4.762785e-001  1.134092e+000 -1.256284e+000
      vertex  6.045263e-001  1.439470e+000 -9.208193e-001
    endloop
  endfacet
  facet normal  5.054634e-001  7.050399e-001 -4.974189e-001
    outer loop
      vertex  1.169222e+000  1.034623e+000 -9.208193e-001
      vertex  6.045263e-001  1.439470e+000 -9.208193e-001
      vertex  1.410170e+000  1.247834e+000 -3.737693e-001
    endloop
  endfacet
  facet normal  5.054633e-001  7.050400e-001 -4.974188e-001
    outer loop
      vertex  1.410170e+000  1.247834e+000 -3.737693e-001
      vertex  6.045263e-001  1.439470e+000 -9.208193e-001
      vertex  7.291046e-001  1.736110e+000 -3.737693e-001
    endloop
  endfacet
  facet normal  8.596719e-002  4.913778e-001 -8.666935e-001
    outer loop
      vertex  2.582522e-001  6.149380e-001 -1.572248e+000
      vertex -3.413441e-002  6.660914e-001 -1.572248e+000
      vertex  4.762785e-001  1.134092e+000 -1.256284e+000
    endloop
  endfacet
  facet normal  8.596724e-002  4.913778e-001 -8.666934e-001
    outer loop
      vertex  4.762785e-001  1.134092e+000 -1.256284e+000
      vertex -3.413441e-002  6.660914e-001 -1.572248e+000
      vertex -6.295197e-002  1.228431e+000 -1.256284e+000
    endloop
  endfacet
  facet normal  1.241596e-001  7.096804e-001 -6.934969e-001
    outer loop
      vertex  4.762785e-001  1.134092e+000 -1.256284e+000
      vertex -6.295197e-002  1.228431e+000 -1.256284e+000
      vertex  6.045263e-001  1.439470e+000 -9.208193e-001
    endloop
  endfacet
  facet normal  1.241595e-001  7.096806e-001 -6.934969e-001
    outer loop
      vertex  6.045263e-001  1.439470e+000 -9.208193e-001
      vertex -6.295197e-002  1.228431e+000 -1.256284e+000
      vertex -7.990310e-002  1.559211e+000 -9.208193e-001
    endloop
  endfacet
  facet normal  1.495014e-001  8.545314e-001 -4.974189e-001
    outer loop
      vertex  6.045263e-001  1.439470e+000 -9.208193e-001
      vertex -7.990310e-002  1.559211e+000 -9.208193e-001
      vertex  7.291046e-001  1.736110e+000 -3.737693e-001
    endloop
  endfacet
  facet normal  1.495014e-001  8.545313e-001 -4.974189e-001
    outer loop
      vertex  7.291046e-001  1.736110e+000 -3.737693e-001
      vertex -7.990310e-002  1.559211e+000 -9.208193e-001
      vertex -9.636921e-002  1.880527e+000 -3.737693e-001
    endloop
  endfacet
  facet normal -2.331570e-001  7.441009e-001 -6.260604e-001
    outer loop
      vertex -9.380660e-001  1.717118e+000 -2.837981e-001
      vertex -2.095473e-001  1.945393e+000 -2.837981e-001
      vertex -9.027560e-001  1.652484e+000 -3.737693e-001
    endloop
  endfacet
  facet normal -1.889834e-001  6.682652e-001 -7.195184e-001
    outer loop
      vertex -2.095473e-001  1.945393e+000 -2.837981e-001
      vertex -9.636921e-002  1.880527e+000 -3.737693e-001
      vertex -9.027560e-001  1.652484e+000 -3.737693e-001
    endloop
  endfacet
  facet normal  4.602175e-001 -5.200891e-001 -7.195187e-001
    outer loop
      vertex  1.530341e+000 -1.097145e+000 -3.737693e-001
      vertex  1.523773e+000 -1.227428e+000 -2.837981e-001
      vertex  9.027560e-001 -1.652484e+000 -3.737693e-001
    endloop
  endfacet
  facet normal  5.001641e-001 -5.982344e-001 -6.260605e-001
    outer loop
      vertex  1.523773e+000 -1.227428e+000 -2.837981e-001
      vertex  9.380660e-001 -1.717118e+000 -2.837981e-001
      vertex  9.027560e-001 -1.652484e+000 -3.737693e-001
    endloop
  endfacet
  facet normal  5.883372e-001 -2.470808e-001 -7.699419e-001
    outer loop
      vertex  1.530341e+000 -1.097145e+000 -3.737693e-001
      vertex  1.854823e+000 -3.245037e-001 -3.737693e-001
      vertex  1.877499e+000 -5.508732e-001 -2.837981e-001
    endloop
  endfacet
  facet normal  7.578080e-001 -3.962079e-001 -5.184076e-001
    outer loop
      vertex  1.523773e+000 -1.227428e+000 -2.837981e-001
      vertex  1.530341e+000 -1.097145e+000 -3.737693e-001
      vertex  1.877499e+000 -5.508732e-001 -2.837981e-001
    endloop
  endfacet
  facet normal  6.062362e-001  3.106705e-002 -7.946776e-001
    outer loop
      vertex  1.854823e+000 -3.245037e-001 -3.737693e-001
      vertex  1.811935e+000  5.124097e-001 -3.737693e-001
      vertex  1.945393e+000  2.095473e-001 -2.837981e-001
    endloop
  endfacet
  facet normal  8.997722e-001 -8.033598e-002 -4.289009e-001
    outer loop
      vertex  1.877499e+000 -5.508732e-001 -2.837981e-001
      vertex  1.854823e+000 -3.245037e-001 -3.737693e-001
      vertex  1.945393e+000  2.095473e-001 -2.837981e-001
    endloop
  endfacet
  facet normal  5.240309e-001  2.862794e-001 -8.021444e-001
    outer loop
      vertex  1.811935e+000  5.124097e-001 -3.737693e-001
      vertex  1.410170e+000  1.247834e+000 -3.737693e-001
      vertex  1.717118e+000  9.380660e-001 -2.837981e-001
    endloop
  endfacet
  facet normal  8.832436e-001  2.767560e-001 -3.785324e-001
    outer loop
      vertex  1.945393e+000  2.095473e-001 -2.837981e-001
      vertex  1.811935e+000  5.124097e-001 -3.737693e-001
      vertex  1.717118e+000  9.380660e-001 -2.837981e-001
    endloop
  endfacet
  facet normal  3.536929e-001  4.933446e-001 -7.946776e-001
    outer loop
      vertex  1.410170e+000  1.247834e+000 -3.737693e-001
      vertex  7.291046e-001  1.736110e+000 -3.737693e-001
      vertex  1.227428e+000  1.523773e+000 -2.837981e-001
    endloop
  endfacet
  facet normal  7.101009e-001  5.936921e-001 -3.785321e-001
    outer loop
      vertex  1.717118e+000  9.380660e-001 -2.837981e-001
      vertex  1.410170e+000  1.247834e+000 -3.737693e-001
      vertex  1.227428e+000  1.523773e+000 -2.837981e-001
    endloop
  endfacet
  facet normal  1.099687e-001  6.285670e-001 -7.699418e-001
    outer loop
      vertex  7.291046e-001  1.736110e+000 -3.737693e-001
      vertex -9.636921e-002  1.880527e+000 -3.737693e-001
      vertex  5.508732e-001  1.877499e+000 -2.837981e-001
    endloop
  endfacet
  facet normal  4.185486e-001  8.005380e-001 -4.289010e-001
    outer loop
      vertex  1.227428e+000  1.523773e+000 -2.837981e-001
      vertex  7.291046e-001  1.736110e+000 -3.737693e-001
      vertex  5.508732e-001  1.877499e+000 -2.837981e-001
    endloop
  endfacet
  facet normal  7.604794e-002  8.517457e-001 -5.184072e-001
    outer loop
      vertex  5.508732e-001  1.877499e+000 -2.837981e-001
      vertex -9.636921e-002  1.880527e+000 -3.737693e-001
      vertex -2.095473e-001  1.945393e+000 -2.837981e-001
    endloop
  endfacet
  facet normal  2.823449e-001  8.847010e-002 -9.552248e-001
    outer loop
      vertex  1.717118e+000  9.380660e-001 -2.837981e-001
      vertex  2.056005e+000  2.214621e-001 -2.500000e-001
      vertex  1.945393e+000  2.095473e-001 -2.837981e-001
    endloop
  endfacet
  facet normal  2.947090e-001 -2.631295e-002 -9.552247e-001
    outer loop
      vertex  1.945393e+000  2.095473e-001 -2.837981e-001
      vertex  2.056005e+000  2.214621e-001 -2.500000e-001
      vertex  1.984250e+000 -5.821945e-001 -2.500000e-001
    endloop
  endfacet
  facet normal  2.947085e-001 -2.631299e-002 -9.552249e-001
    outer loop
      vertex  1.945393e+000  2.095473e-001 -2.837981e-001
      vertex  1.984250e+000 -5.821945e-001 -2.500000e-001
      vertex  1.877499e+000 -5.508732e-001 -2.837981e-001
    endloop
  endfacet
  facet normal  2.622060e-001 -1.370902e-001 -9.552246e-001
    outer loop
      vertex  1.877499e+000 -5.508732e-001 -2.837981e-001
      vertex  1.984250e+000 -5.821945e-001 -2.500000e-001
      vertex  1.610412e+000 -1.297217e+000 -2.500000e-001
    endloop
  endfacet
  facet normal  2.622057e-001 -1.370901e-001 -9.552249e-001
    outer loop
      vertex  1.877499e+000 -5.508732e-001 -2.837981e-001
      vertex  1.610412e+000 -1.297217e+000 -2.500000e-001
      vertex  1.523773e+000 -1.227428e+000 -2.837981e-001
    endloop
  endfacet
  facet normal  1.897847e-001 -2.269968e-001 -9.552247e-001
    outer loop
      vertex  1.523773e+000 -1.227428e+000 -2.837981e-001
      vertex  1.610412e+000 -1.297217e+000 -2.500000e-001
      vertex  9.914034e-001 -1.814751e+000 -2.500000e-001
    endloop
  endfacet
  facet normal  1.897843e-001 -2.269965e-001 -9.552249e-001
    outer loop
      vertex  1.523773e+000 -1.227428e+000 -2.837981e-001
      vertex  9.914034e-001 -1.814751e+000 -2.500000e-001
      vertex  9.380660e-001 -1.717118e+000 -2.837981e-001
    endloop
  endfacet
  facet normal  2.823451e-001  8.847023e-002 -9.552248e-001
    outer loop
      vertex  2.056005e+000  2.214621e-001 -2.500000e-001
      vertex  1.717118e+000  9.380660e-001 -2.837981e-001
      vertex  1.814751e+000  9.914031e-001 -2.500000e-001
    endloop
  endfacet
  facet normal  2.269966e-001  1.897845e-001 -9.552248e-001
    outer loop
      vertex  1.814751e+000  9.914031e-001 -2.500000e-001
      vertex  1.717118e+000  9.380660e-001 -2.837981e-001
      vertex  1.227428e+000  1.523773e+000 -2.837981e-001
    endloop
  endfacet
  facet normal  2.269968e-001  1.897846e-001 -9.552248e-001
    outer loop
      vertex  1.814751e+000  9.914031e-001 -2.500000e-001
      vertex  1.227428e+000  1.523773e+000 -2.837981e-001
      vertex  1.297217e+000  1.610412e+000 -2.500000e-001
    endloop
  endfacet
  facet normal  1.370902e-001  2.622059e-001 -9.552247e-001
    outer loop
      vertex  1.297217e+000  1.610412e+000 -2.500000e-001
      vertex  1.227428e+000  1.523773e+000 -2.837981e-001
      vertex  5.508732e-001  1.877499e+000 -2.837981e-001
    endloop
  endfacet
  facet normal  1.370902e-001  2.622060e-001 -9.552248e-001
    outer loop
      vertex  1.297217e+000  1.610412e+000 -2.500000e-001
      vertex  5.508732e-001  1.877499e+000 -2.837981e-001
      vertex  5.821947e-001  1.984250e+000 -2.500000e-001
    endloop
  endfacet
  facet normal  2.631301e-002  2.947087e-001 -9.552248e-001
    outer loop
      vertex  5.821947e-001  1.984250e+000 -2.500000e-001
      vertex  5.508732e-001  1.877499e+000 -2.837981e-001
      vertex -2.095473e-001  1.945393e+000 -2.837981e-001
    endloop
  endfacet
  facet normal  2.631300e-002  2.947090e-001 -9.552248e-001
    outer loop
      vertex  5.821947e-001  1.984250e+000 -2.500000e-001
      vertex -2.095473e-001  1.945393e+000 -2.837981e-001
      vertex -2.214618e-001  2.056005e+000 -2.500000e-001
    endloop
  endfacet
  facet normal -8.847015e-002  2.823451e-001 -9.552247e-001
    outer loop
      vertex -2.214618e-001  2.056005e+000 -2.500000e-001
      vertex -2.095473e-001  1.945393e+000 -2.837981e-001
      vertex -9.380660e-001  1.717118e+000 -2.837981e-001
    endloop
  endfacet
  facet normal -8.847015e-002  2.823450e-001 -9.552248e-001
    outer loop
      vertex -2.214618e-001  2.056005e+000 -2.500000e-001
      vertex -9.380660e-001  1.717118e+000 -2.837981e-001
      vertex -9.914029e-001  1.814751e+000 -2.500000e-001
    endloop
  endfacet
  facet normal  2.331570e-001 -7.441009e-001 -6.260604e-001
    outer loop
      vertex  9.380660e-001 -1.717118e+000 -2.837981e-001
      vertex  2.095473e-001 -1.945393e+000 -2.837981e-001
      vertex  9.027560e-001 -1.652484e+000 -3.737693e-001
    endloop
  endfacet
  facet normal  1.889834e-001 -6.682652e-001 -7.195184e-001
    outer loop
      vertex  2.095473e-001 -1.945393e+000 -2.837981e-001
      vertex  9.636921e-002 -1.880527e+000 -3.737693e-001
      vertex  9.027560e-001 -1.652484e+000 -3.737693e-001
    endloop
  endfacet
  facet normal -4.602175e-001  5.200891e-001 -7.195187e-001
    outer loop
      vertex -1.530341e+000  1.097145e+000 -3.737693e-001
      vertex -1.523773e+000  1.227428e+000 -2.837981e-001
      vertex -9.027560e-001  1.652484e+000 -3.737693e-001
    endloop
  endfacet
  facet normal -5.001641e-001  5.982344e-001 -6.260605e-001
    outer loop
      vertex -1.523773e+000  1.227428e+000 -2.837981e-001
      vertex -9.380660e-001  1.717118e+000 -2.837981e-001
      vertex -9.027560e-001  1.652484e+000 -3.737693e-001
    endloop
  endfacet
  facet normal -5.883372e-001  2.470808e-001 -7.699419e-001
    outer loop
      vertex -1.530341e+000  1.097145e+000 -3.737693e-001
      vertex -1.854823e+000  3.245037e-001 -3.737693e-001
      vertex -1.877499e+000  5.508732e-001 -2.837981e-001
    endloop
  endfacet
  facet normal -7.578080e-001  3.962079e-001 -5.184076e-001
    outer loop
      vertex -1.523773e+000  1.227428e+000 -2.837981e-001
      vertex -1.530341e+000  1.097145e+000 -3.737693e-001
      vertex -1.877499e+000  5.508732e-001 -2.837981e-001
    endloop
  endfacet
  facet normal -6.062362e-001 -3.106705e-002 -7.946776e-001
    outer loop
      vertex -1.854823e+000  3.245037e-001 -3.737693e-001
      vertex -1.811935e+000 -5.124097e-001 -3.737693e-001
      vertex -1.945393e+000 -2.095473e-001 -2.837981e-001
    endloop
  endfacet
  facet normal -8.997722e-001  8.033598e-002 -4.289009e-001
    outer loop
      vertex -1.877499e+000  5.508732e-001 -2.837981e-001
      vertex -1.854823e+000  3.245037e-001 -3.737693e-001
      vertex -1.945393e+000 -2.095473e-001 -2.837981e-001
    endloop
  endfacet
  facet normal -5.240309e-001 -2.862794e-001 -8.021444e-001
    outer loop
      vertex -1.811935e+000 -5.124097e-001 -3.737693e-001
      vertex -1.410170e+000 -1.247834e+000 -3.737693e-001
      vertex -1.717118e+000 -9.380660e-001 -2.837981e-001
    endloop
  endfacet
  facet normal -8.832436e-001 -2.767560e-001 -3.785324e-001
    outer loop
      vertex -1.945393e+000 -2.095473e-001 -2.837981e-001
      vertex -1.811935e+000 -5.124097e-001 -3.737693e-001
      vertex -1.717118e+000 -9.380660e-001 -2.837981e-001
    endloop
  endfacet
  facet normal -3.536929e-001 -4.933446e-001 -7.946776e-001
    outer loop
      vertex -1.410170e+000 -1.247834e+000 -3.737693e-001
      vertex -7.291046e-001 -1.736110e+000 -3.737693e-001
      vertex -1.227428e+000 -1.523773e+000 -2.837981e-001
    endloop
  endfacet
  facet normal -7.101009e-001 -5.936921e-001 -3.785321e-001
    outer loop
      vertex -1.717118e+000 -9.380660e-001 -2.837981e-001
      vertex -1.410170e+000 -1.247834e+000 -3.737693e-001
      vertex -1.227428e+000 -1.523773e+000 -2.837981e-001
    endloop
  endfacet
  facet normal -1.099687e-001 -6.285670e-001 -7.699418e-001
    outer loop
      vertex -7.291046e-001 -1.736110e+000 -3.737693e-001
      vertex  9.636921e-002 -1.880527e+000 -3.737693e-001
      vertex -5.508732e-001 -1.877499e+000 -2.837981e-001
    endloop
  endfacet
  facet normal -4.185486e-001 -8.005380e-001 -4.289010e-001
    outer loop
      vertex -1.227428e+000 -1.523773e+000 -2.837981e-001
      vertex -7.291046e-001 -1.736110e+000 -3.737693e-001
      vertex -5.508732e-001 -1.877499e+000 -2.837981e-001
    endloop
  endfacet
  facet normal -7.604794e-002 -8.517457e-001 -5.184072e-001
    outer loop
      vertex -5.508732e-001 -1.877499e+000 -2.837981e-001
      vertex  9.636921e-002 -1.880527e+000 -3.737693e-001
      vertex  2.095473e-001 -1.945393e+000 -2.837981e-001
    endloop
  endfacet
  facet normal -2.823450e-001 -8.847013e-002 -9.552248e-001
    outer loop
      vertex -1.717118e+000 -9.380660e-001 -2.837981e-001
      vertex -2.056005e+000 -2.214620e-001 -2.500000e-001
      vertex -1.945393e+000 -2.095473e-001 -2.837981e-001
    endloop
  endfacet
  facet normal -2.947090e-001  2.631299e-002 -9.552246e-001
    outer loop
      vertex -1.945393e+000 -2.095473e-001 -2.837981e-001
      vertex -2.056005e+000 -2.214620e-001 -2.500000e-001
      vertex -1.984250e+000  5.821947e-001 -2.500000e-001
    endloop
  endfacet
  facet normal -2.947087e-001  2.631301e-002 -9.552248e-001
    outer loop
      vertex -1.945393e+000 -2.095473e-001 -2.837981e-001
      vertex -1.984250e+000  5.821947e-001 -2.500000e-001
      vertex -1.877499e+000  5.508732e-001 -2.837981e-001
    endloop
  endfacet
  facet normal -2.622060e-001  1.370903e-001 -9.552248e-001
    outer loop
      vertex -1.877499e+000  5.508732e-001 -2.837981e-001
      vertex -1.984250e+000  5.821947e-001 -2.500000e-001
      vertex -1.610412e+000  1.297218e+000 -2.500000e-001
    endloop
  endfacet
  facet normal -2.622060e-001  1.370903e-001 -9.552247e-001
    outer loop
      vertex -1.877499e+000  5.508732e-001 -2.837981e-001
      vertex -1.610412e+000  1.297218e+000 -2.500000e-001
      vertex -1.523773e+000  1.227428e+000 -2.837981e-001
    endloop
  endfacet
  facet normal -1.897846e-001  2.269968e-001 -9.552248e-001
    outer loop
      vertex -1.523773e+000  1.227428e+000 -2.837981e-001
      vertex -1.610412e+000  1.297218e+000 -2.500000e-001
      vertex -9.914029e-001  1.814751e+000 -2.500000e-001
    endloop
  endfacet
  facet normal -1.897845e-001  2.269968e-001 -9.552247e-001
    outer loop
      vertex -1.523773e+000  1.227428e+000 -2.837981e-001
      vertex -9.914029e-001  1.814751e+000 -2.500000e-001
      vertex -9.380660e-001  1.717118e+000 -2.837981e-001
    endloop
  endfacet
  facet normal -2.823451e-001 -8.847021e-002 -9.552248e-001
    outer loop
      vertex -2.056005e+000 -2.214620e-001 -2.500000e-001
      vertex -1.717118e+000 -9.380660e-001 -2.837981e-001
      vertex -1.814751e+000 -9.914031e-001 -2.500000e-001
    endloop
  endfacet
  facet normal -2.269966e-001 -1.897845e-001 -9.552248e-001
    outer loop
      vertex -1.814751e+000 -9.914031e-001 -2.500000e-001
      vertex -1.717118e+000 -9.380660e-001 -2.837981e-001
      vertex -1.227428e+000 -1.523773e+000 -2.837981e-001
    endloop
  endfacet
  facet normal -2.269968e-001 -1.897847e-001 -9.552246e-001
    outer loop
      vertex -1.814751e+000 -9.914031e-001 -2.500000e-001
      vertex -1.227428e+000 -1.523773e+000 -2.837981e-001
      vertex -1.297217e+000 -1.610412e+000 -2.500000e-001
    endloop
  endfacet
  facet normal -1.370902e-001 -2.622058e-001 -9.552248e-001
    outer loop
      vertex -1.297217e+000 -1.610412e+000 -2.500000e-001
      vertex -1.227428e+000 -1.523773e+000 -2.837981e-001
      vertex -5.508732e-001 -1.877499e+000 -2.837981e-001
    endloop
  endfacet
  facet normal -1.370902e-001 -2.622060e-001 -9.552248e-001
    outer loop
      vertex -1.297217e+000 -1.610412e+000 -2.500000e-001
      vertex -5.508732e-001 -1.877499e+000 -2.837981e-001
      vertex -5.821945e-001 -1.984250e+000 -2.500000e-001
    endloop
  endfacet
  facet normal -2.631299e-002 -2.947085e-001 -9.552249e-001
    outer loop
      vertex -5.821945e-001 -1.984250e+000 -2.500000e-001
      vertex -5.508732e-001 -1.877499e+000 -2.837981e-001
      vertex  2.095473e-001 -1.945393e+000 -2.837981e-001
    endloop
  endfacet
  facet normal -2.631295e-002 -2.947090e-001 -9.552246e-001
    outer loop
      vertex -5.821945e-001 -1.984250e+000 -2.500000e-001
      vertex  2.095473e-001 -1.945393e+000 -2.837981e-001
      vertex  2.214622e-001 -2.056005e+000 -2.500000e-001
    endloop
  endfacet
  facet normal  8.847008e-002 -2.823448e-001 -9.552249e-001
    outer loop
      vertex  2.214622e-001 -2.056005e+000 -2.500000e-001
      vertex  2.095473e-001 -1.945393e+000 -2.837981e-001
      vertex  9.380660e-001 -1.717118e+000 -2.837981e-001
    endloop
  endfacet
  facet normal  8.847025e-002 -2.823452e-001 -9.552246e-001
    outer loop
      vertex  2.214622e-001 -2.056005e+000 -2.500000e-001
      vertex  9.380660e-001 -1.717118e+000 -2.837981e-001
      vertex  9.914034e-001 -1.814751e+000 -2.500000e-001
    endloop
  endfacet
  facet normal  0.000000e+000  0.000000e+000  1.000000e+000
    outer loop
      vertex -2.500000e+000 -2.500000e+000  0.000000e+000
      vertex  2.500000e+000 -2.500000e+000  0.000000e+000
      vertex -2.500000e+000  2.500000e+000  0.000000e+000
    endloop
  endfacet
  facet normal  -0.000000e+000  0.000000e+000  1.000000e+000
    outer loop
      vertex -2.500000e+000  2.500000e+000  0.000000e+000
      vertex  2.500000e+000 -2.500000e+000  0.000000e+000
      vertex  2.500000e+000  2.500000e+000  0.000000e+000
    endloop
  endfacet
  facet normal  0.000000e+000  1.000000e+000  0.000000e+000
    outer loop
      vertex -2.500000e+000  2.500000e+000 -2.500000e-001
      vertex -2.500000e+000  2.500000e+000  0.000000e+000
      vertex  2.500000e+000  2.500000e+000 -2.500000e-001
    endloop
  endfacet
  facet normal  0.000000e+000  1.000000e+000  -0.000000e+000
    outer loop
      vertex  2.500000e+000  2.500000e+000 -2.500000e-001
      vertex -2.500000e+000  2.500000e+000  0.000000e+000
      vertex  2.500000e+000  2.500000e+000  0.000000e+000
    endloop
  endfacet
  facet normal  1.000000e+000  0.000000e+000  0.000000e+000
    outer loop
      vertex  2.500000e+000 -2.500000e+000 -2.500000e-001
      vertex  2.500000e+000  2.500000e+000 -2.500000e-001
      vertex  2.500000e+000 -2.500000e+000  0.000000e+000
    endloop
  endfacet
  facet normal  1.000000e+000  -0.000000e+000  0.000000e+000
    outer loop
      vertex  2.500000e+000 -2.500000e+000  0.000000e+000
      vertex  2.500000e+000  2.500000e+000 -2.500000e-001
      vertex  2.500000e+000  2.500000e+000  0.000000e+000
    endloop
  endfacet
  facet normal  0.000000e+000 -1.000000e+000  -0.000000e+000
    outer loop
      vertex  2.500000e+000 -2.500000e+000 -2.500000e-001
      vertex  2.500000e+000 -2.500000e+000  0.000000e+000
      vertex -2.500000e+000 -2.500000e+000 -2.500000e-001
    endloop
  endfacet
  facet normal  0.000000e+000 -1.000000e+000  0.000000e+000
    outer loop
      vertex -2.500000e+000 -2.500000e+000 -2.500000e-001
      vertex  2.500000e+000 -2.500000e+000  0.000000e+000
      vertex -2.500000e+000 -2.500000e+000  0.000000e+000
    endloop
  endfacet
  facet normal -1.000000e+000  0.000000e+000  0.000000e+000
    outer loop
      vertex -2.500000e+000  2.500000e+000 -2.500000e-001
      vertex -2.500000e+000 -2.500000e+000 -2.500000e-001
      vertex -2.500000e+000  2.500000e+000  0.000000e+000
    endloop
  endfacet
  facet normal -1.000000e+000  -0.000000e+000  0.000000e+000
    outer loop
      vertex -2.500000e+000  2.500000e+000  0.000000e+000
      vertex -2.500000e+000 -2.500000e+000 -2.500000e-001
      vertex -2.500000e+000 -2.500000e+000  0.000000e+000
    endloop
  endfacet
endsolid CATIA STL
